<svg width="24" height="24" viewBox="0 0 24 24" fill="none" xmlns="http://www.w3.org/2000/svg">
<path d="M5.8557 6.8401C5.62327 6.71495 5.34216 6.72121 5.11553 6.85657C4.8889 6.99194 4.75012 7.23648 4.75012 7.50046V17.0005C4.75012 17.4147 5.08591 17.7505 5.50012 17.7505C5.91434 17.7505 6.25012 17.4147 6.25012 17.0005V8.75612L11.6445 11.6608C11.8665 11.7803 12.1337 11.7803 12.3557 11.6608L17.7501 8.75612V17.0005C17.7501 17.4147 18.0859 17.7505 18.5001 17.7505C18.9143 17.7505 19.2501 17.4147 19.2501 17.0005V7.50046C19.2501 7.23648 19.1113 6.99194 18.8847 6.85657C18.6581 6.72121 18.377 6.71495 18.1445 6.8401L12.0001 10.1486L5.8557 6.8401Z" fill="white"/>
<path fill-rule="evenodd" clip-rule="evenodd" d="M17.3107 3.72229C13.7774 3.40637 10.2229 3.40637 6.68955 3.72229L5.17221 3.85796C3.54459 4.00349 2.22952 5.24691 1.99313 6.86383C1.49513 10.2701 1.49513 13.7308 1.99313 17.1371C2.22952 18.754 3.54459 19.9974 5.17221 20.143L6.68955 20.2786C10.2229 20.5945 13.7774 20.5945 17.3107 20.2786L18.8281 20.143C20.4557 19.9974 21.7707 18.754 22.0071 17.1371C22.5051 13.7308 22.5051 10.2701 22.0071 6.86383C21.7707 5.24691 20.4557 4.00349 18.8281 3.85796L17.3107 3.72229ZM6.82313 5.21633C10.2676 4.90836 13.7327 4.90836 17.1771 5.21633L18.6945 5.352C19.6306 5.4357 20.387 6.15085 20.5229 7.08082C20.9999 10.3432 20.9999 13.6577 20.5229 16.9201C20.387 17.8501 19.6306 18.5652 18.6945 18.6489L17.1771 18.7846C13.7327 19.0926 10.2676 19.0926 6.82313 18.7846L5.30579 18.6489C4.36967 18.5652 3.61331 17.8501 3.47735 16.9201C3.00039 13.6577 3.00039 10.3432 3.47735 7.08082C3.61331 6.15085 4.36967 5.4357 5.30579 5.352L6.82313 5.21633Z" fill="white"/>
</svg>
