<svg width="39" height="36" viewBox="0 0 39 36" fill="none" xmlns="http://www.w3.org/2000/svg">
<ellipse cx="19.4999" cy="23.0004" rx="17.5931" ry="8" transform="rotate(-16.382 19.4999 23.0004)" fill="#C0D2EF"/>
<path fill-rule="evenodd" clip-rule="evenodd" d="M18.5039 1.56918C19.0673 1.41444 19.662 1.41444 20.2254 1.56918C21.0406 1.79308 21.6219 2.43543 22.1446 3.23834C22.6679 4.04224 23.2317 5.1699 23.9436 6.59367L23.9663 6.6391L23.2954 6.97451L23.9663 6.6391L24.0257 6.75799C24.4406 7.58777 24.5781 7.84149 24.764 8.02472C24.905 8.16373 25.0686 8.2778 25.2478 8.36207C25.484 8.47315 25.7696 8.51444 26.6916 8.61689L26.7357 8.62178C28.2198 8.78668 29.3906 8.91677 30.268 9.10302C31.1363 9.28738 31.8933 9.55805 32.3855 10.1346C32.9381 10.7818 33.2148 11.6199 33.1562 12.469C33.1039 13.2252 32.6569 13.8934 32.0689 14.5585C31.475 15.2305 30.6116 16.0321 29.5174 17.0482L29.485 17.0783L29.3088 17.2419C28.5576 17.9394 28.3308 18.1653 28.2039 18.4164C28.0849 18.652 28.0207 18.9116 28.0161 19.1756C28.0113 19.4569 28.1067 19.7625 28.4461 20.7298L28.4597 20.7685C28.9693 22.221 29.3692 23.3605 29.5932 24.2455C29.8126 25.1121 29.9158 25.914 29.6377 26.5951C29.2534 27.5363 28.4509 28.2434 27.4688 28.5062C26.7581 28.6963 25.9757 28.493 25.1435 28.1663C24.2937 27.8327 23.2136 27.2926 21.8368 26.6042L21.8001 26.5859L20.9941 26.1829C20.1154 25.7435 19.8385 25.6171 19.5611 25.5858C19.4306 25.571 19.2988 25.571 19.1682 25.5858C18.8908 25.6171 18.614 25.7435 17.7353 26.1829L16.9292 26.5859L16.8926 26.6042C15.5158 27.2926 14.4357 27.8327 13.5858 28.1663C12.7537 28.493 11.9712 28.6963 11.2605 28.5062C10.2785 28.2434 9.47592 27.5363 9.09166 26.5951C8.87625 26.0675 8.89256 25.4782 9.00071 24.8661C9.10987 24.2482 9.33222 23.5075 9.62736 22.6251C9.75874 22.2323 10.1837 22.0203 10.5765 22.1517C10.9693 22.2831 11.1813 22.7081 11.0499 23.1009C10.7565 23.9783 10.5661 24.6277 10.4778 25.1271C10.3886 25.6322 10.4229 25.8873 10.4804 26.0281C10.6873 26.5349 11.1194 26.9157 11.6482 27.0571C11.8536 27.1121 12.233 27.086 13.0377 26.7701C13.8172 26.464 14.8371 25.9549 16.2584 25.2442L17.0644 24.8412C17.1013 24.8228 17.1376 24.8046 17.1734 24.7867C17.896 24.4248 18.4244 24.1602 18.9999 24.0952C19.2423 24.0679 19.487 24.0679 19.7295 24.0952C20.3049 24.1603 20.8333 24.4248 21.556 24.7867C21.5918 24.8046 21.6281 24.8228 21.6649 24.8412L22.4709 25.2442C23.8922 25.9549 24.9122 26.464 25.6917 26.7701C26.4963 27.086 26.8758 27.1121 27.0811 27.0571C27.6099 26.9157 28.0421 26.5349 28.249 26.0281C28.3293 25.8313 28.3512 25.4516 28.139 24.6136C27.9336 23.8018 27.5568 22.7258 27.0307 21.2264C27.0162 21.1852 27.002 21.1446 26.9879 21.1045C26.7093 20.3121 26.5064 19.7348 26.5164 19.15C26.5248 18.6596 26.644 18.1776 26.8651 17.7399C27.1289 17.2178 27.5776 16.8017 28.1934 16.2305C28.2246 16.2017 28.2562 16.1724 28.2882 16.1427L28.7985 16.6923L28.2882 16.1427L28.4643 15.9791C29.5981 14.9263 30.4062 14.1747 30.9451 13.5651C31.4959 12.9419 31.6438 12.5959 31.6597 12.3656C31.6913 11.9084 31.5423 11.4571 31.2448 11.1086C31.0948 10.933 30.77 10.743 29.9564 10.5703C29.1605 10.4013 28.0637 10.2786 26.526 10.1077C26.4871 10.1034 26.4488 10.0992 26.411 10.095C25.653 10.0112 25.0997 9.95002 24.6094 9.71946C24.2766 9.56297 23.9728 9.35112 23.7109 9.09296C23.3251 8.71263 23.0764 8.21455 22.7358 7.53226C22.7188 7.49823 22.7015 7.46375 22.6841 7.4288L22.6246 7.30992C21.885 5.83062 21.3585 4.78034 20.8874 4.05667C20.4102 3.32349 20.0882 3.08705 19.8282 3.01562C19.5248 2.93229 19.2046 2.93229 18.9012 3.01562C18.6411 3.08705 18.3192 3.32349 17.8419 4.05667C17.3708 4.78033 16.8444 5.83062 16.1047 7.30991L16.0453 7.42881C16.0278 7.46375 16.0106 7.49823 15.9936 7.53225C15.6529 8.21455 15.4042 8.71263 15.0184 9.09297C14.7565 9.35113 14.4527 9.56297 14.1199 9.71946C13.6296 9.95002 13.0763 10.0112 12.3183 10.095C12.2805 10.0992 12.2422 10.1034 12.2034 10.1077C10.6656 10.2786 9.56888 10.4013 8.7729 10.5703C7.95934 10.743 7.6345 10.933 7.48455 11.1086C7.187 11.4571 7.03801 11.9084 7.0696 12.3656C7.08552 12.5959 7.23343 12.9419 7.78426 13.5651C8.32318 14.1747 9.13126 14.9263 10.2651 15.9791L10.4412 16.1427C10.9468 16.6121 11.3744 17.1093 11.6024 17.387C11.8653 17.7071 11.8189 18.1797 11.4988 18.4426C11.1788 18.7055 10.7062 18.6591 10.4433 18.339C10.2362 18.0868 9.85659 17.6468 9.42051 17.2419L9.24439 17.0783L9.21193 17.0482C8.11769 16.0321 7.25438 15.2305 6.6604 14.5585C6.07246 13.8934 5.62542 13.2252 5.57317 12.4689C5.5145 11.6199 5.7912 10.7818 6.3438 10.1346C6.83606 9.55805 7.59301 9.28738 8.46139 9.10302C9.33869 8.91677 10.5096 8.78667 11.9937 8.62178L12.0377 8.61689C12.9598 8.51444 13.2454 8.47314 13.4816 8.36207C13.6608 8.2778 13.8244 8.16373 13.9654 8.02472C14.1513 7.84149 14.2887 7.58778 14.7036 6.75799L14.7631 6.63909L14.7858 6.59358C15.4977 5.16986 16.0615 4.04222 16.5848 3.23833C17.1075 2.43543 17.6887 1.79308 18.5039 1.56918Z" fill="#314060"/>
</svg>
