<svg width="39" height="38" viewBox="0 0 39 38" fill="none" xmlns="http://www.w3.org/2000/svg">
<ellipse cx="19.4999" cy="25.0004" rx="17.5931" ry="8" transform="rotate(-16.382 19.4999 25.0004)" fill="#C0D2EF"/>
<path fill-rule="evenodd" clip-rule="evenodd" d="M19.3647 3.61328C12.8754 3.61328 7.61475 8.87394 7.61475 15.3633C7.61475 21.8526 12.8754 27.1133 19.3647 27.1133C25.8541 27.1133 31.1147 21.8526 31.1147 15.3633C31.1147 14.5575 31.0337 13.7714 30.8797 13.0125C30.7973 12.6065 31.0596 12.2107 31.4655 12.1283C31.8714 12.0459 32.2673 12.3081 32.3497 12.7141C32.5236 13.5707 32.6147 14.4567 32.6147 15.3633C32.6147 22.6811 26.6825 28.6133 19.3647 28.6133C12.047 28.6133 6.11475 22.6811 6.11475 15.3633C6.11475 8.04551 12.047 2.11328 19.3647 2.11328C23.3905 2.11328 26.9969 3.90933 29.4261 6.74132L31.3344 4.83295C31.6273 4.54006 32.1022 4.54006 32.3951 4.83295C32.688 5.12584 32.688 5.60072 32.3951 5.89361L29.8956 8.39309L19.8951 18.3936C19.7544 18.5343 19.5637 18.6133 19.3647 18.6133C19.1658 18.6133 18.9751 18.5343 18.8344 18.3936L15.0844 14.6436C14.7915 14.3507 14.7915 13.8758 15.0844 13.583C15.3773 13.2901 15.8522 13.2901 16.1451 13.583L19.3647 16.8026L28.3619 7.80546C26.2055 5.24108 22.9753 3.61328 19.3647 3.61328Z" fill="#314060"/>
</svg>
