<svg width="40" height="38" viewBox="0 0 40 38" fill="none" xmlns="http://www.w3.org/2000/svg">
<ellipse cx="19.9999" cy="25.0004" rx="17.5931" ry="8" transform="rotate(-16.382 19.9999 25.0004)" fill="#C0D2EF"/>
<path fill-rule="evenodd" clip-rule="evenodd" d="M23.6147 2.11328C23.2005 2.11328 22.8647 2.44907 22.8647 2.86328C22.8647 3.27749 23.2005 3.61328 23.6147 3.61328C25.962 3.61328 27.8647 5.51607 27.8647 7.86328C27.8647 10.2105 25.962 12.1133 23.6147 12.1133C23.2005 12.1133 22.8647 12.4491 22.8647 12.8633C22.8647 13.2775 23.2005 13.6133 23.6147 13.6133C26.7904 13.6133 29.3647 11.0389 29.3647 7.86328C29.3647 4.68764 26.7904 2.11328 23.6147 2.11328ZM12.1147 17.1133C8.38682 17.1133 5.36475 20.1354 5.36475 23.8633C5.36475 26.4866 7.49139 28.6133 10.1147 28.6133H11.7397C12.154 28.6133 12.4897 28.2775 12.4897 27.8633C12.4897 27.4491 12.154 27.1133 11.7397 27.1133H10.1147C8.31982 27.1133 6.86475 25.6582 6.86475 23.8633C6.86475 20.9638 9.21525 18.6133 12.1147 18.6133H17.6147C20.5142 18.6133 22.8647 20.9638 22.8647 23.8633C22.8647 25.6582 21.4097 27.1133 19.6147 27.1133H17.9897C17.5755 27.1133 17.2397 27.4491 17.2397 27.8633C17.2397 28.2775 17.5755 28.6133 17.9897 28.6133H19.6147C22.2381 28.6133 24.3647 26.4866 24.3647 23.8633C24.3647 20.1354 21.3427 17.1133 17.6147 17.1133H12.1147ZM14.8647 3.61328C12.5175 3.61328 10.6147 5.51607 10.6147 7.86328C10.6147 10.2105 12.5175 12.1133 14.8647 12.1133C17.212 12.1133 19.1147 10.2105 19.1147 7.86328C19.1147 5.51607 17.212 3.61328 14.8647 3.61328ZM9.11475 7.86328C9.11475 4.68764 11.6891 2.11328 14.8647 2.11328C18.0404 2.11328 20.6147 4.68764 20.6147 7.86328C20.6147 11.0389 18.0404 13.6133 14.8647 13.6133C11.6891 13.6133 9.11475 11.0389 9.11475 7.86328ZM26.1147 17.1133C25.7005 17.1133 25.3647 17.4491 25.3647 17.8633C25.3647 18.2775 25.7005 18.6133 26.1147 18.6133H27.6147C30.5142 18.6133 32.8647 20.9638 32.8647 23.8633C32.8647 25.6582 31.4097 27.1133 29.6147 27.1133H26.1147C25.7005 27.1133 25.3647 27.4491 25.3647 27.8633C25.3647 28.2775 25.7005 28.6133 26.1147 28.6133H29.6147C32.2381 28.6133 34.3647 26.4866 34.3647 23.8633C34.3647 20.1354 31.3427 17.1133 27.6147 17.1133H26.1147Z" fill="#314060"/>
</svg>
