<svg width="24" height="24" viewBox="0 0 24 24" fill="none" xmlns="http://www.w3.org/2000/svg">
<path d="M16.0002 6.99956C16.0002 6.44727 16.4479 5.99956 17.0002 5.99956C17.5525 5.99956 18.0002 6.44727 18.0002 6.99956C18.0002 7.55184 17.5525 7.99956 17.0002 7.99956C16.4479 7.99956 16.0002 7.55184 16.0002 6.99956Z" fill="white"/>
<path fill-rule="evenodd" clip-rule="evenodd" d="M12.0002 7.24956C9.37683 7.24956 7.25018 9.3762 7.25018 11.9996C7.25018 14.6229 9.37683 16.7496 12.0002 16.7496C14.6235 16.7496 16.7502 14.6229 16.7502 11.9996C16.7502 9.3762 14.6235 7.24956 12.0002 7.24956ZM8.75018 11.9996C8.75018 10.2046 10.2053 8.74956 12.0002 8.74956C13.7951 8.74956 15.2502 10.2046 15.2502 11.9996C15.2502 13.7945 13.7951 15.2496 12.0002 15.2496C10.2053 15.2496 8.75018 13.7945 8.75018 11.9996Z" fill="white"/>
<path fill-rule="evenodd" clip-rule="evenodd" d="M17.2584 2.83257C13.7919 2.44513 10.2085 2.44513 6.74195 2.83257C4.7299 3.05745 3.10556 4.64246 2.86901 6.66499C2.45447 10.2093 2.45447 13.7898 2.86901 17.3341C3.10556 19.3567 4.7299 20.9417 6.74195 21.1665C10.2085 21.554 13.7919 21.554 17.2584 21.1665C19.2705 20.9417 20.8948 19.3567 21.1314 17.3341C21.5459 13.7898 21.5459 10.2093 21.1314 6.66499C20.8948 4.64246 19.2705 3.05745 17.2584 2.83257ZM6.90856 4.32329C10.2644 3.94823 13.736 3.94823 17.0918 4.32329C18.4219 4.47195 19.4874 5.52156 19.6415 6.83924C20.0425 10.2678 20.0425 13.7313 19.6415 17.1599C19.4874 18.4775 18.4219 19.5272 17.0918 19.6758C13.736 20.0509 10.2644 20.0509 6.90856 19.6758C5.57846 19.5272 4.51297 18.4775 4.35885 17.1599C3.95786 13.7313 3.95786 10.2678 4.35885 6.83924C4.51297 5.52156 5.57845 4.47195 6.90856 4.32329Z" fill="white"/>
</svg>
