<svg width="57" height="58" viewBox="0 0 57 58" fill="none" xmlns="http://www.w3.org/2000/svg">
<g clip-path="url(#clip0_2444_3843)">
<path fill-rule="evenodd" clip-rule="evenodd" d="M48.6948 8.4221C43.3373 2.99373 36.2118 0.00275412 28.6197 0C12.9756 0 0.24359 12.8824 0.238146 28.7172C0.235424 33.7792 1.54319 38.7201 4.02672 43.0745L0 57.9577L15.0454 53.9642C19.1905 56.253 23.8581 57.4578 28.6075 57.4593H28.6197C44.2611 57.4593 56.9946 44.5754 57 28.7406C57.0027 21.0663 54.0537 13.8519 48.6948 8.42347V8.4221ZM28.6197 52.6092H28.6102C24.3779 52.6079 20.2261 51.4566 16.6036 49.2822L15.7422 48.7645L6.81372 51.1344L9.19654 42.3253L8.63586 41.4219C6.27481 37.6213 5.02692 33.2284 5.02965 28.7187C5.03509 15.558 15.617 4.85 28.6294 4.85C34.9299 4.85276 40.8524 7.33836 45.3063 11.851C49.7604 16.3622 52.2112 22.3608 52.2085 28.7379C52.203 41.8999 41.6212 52.6079 28.6197 52.6079V52.6092ZM41.5585 34.7322C40.8495 34.3728 37.3632 32.6377 36.7126 32.3981C36.0622 32.1584 35.59 32.0388 35.1177 32.7575C34.6456 33.4764 33.2861 35.093 32.8724 35.5708C32.4587 36.05 32.0449 36.1093 31.3359 35.7498C30.627 35.3904 28.3421 34.633 25.6327 32.1887C23.5249 30.2856 22.1013 27.9365 21.6877 27.2175C21.274 26.4988 21.6442 26.1104 21.9979 25.7538C22.3163 25.4316 22.7069 24.9152 23.062 24.4965C23.4173 24.0779 23.5343 23.7778 23.7711 23.2998C24.0079 22.8206 23.8895 22.4021 23.7126 22.0426C23.5356 21.6832 22.1177 18.151 21.5257 16.7147C20.95 15.3157 20.365 15.5057 19.9308 15.4823C19.5171 15.4616 19.045 15.4575 18.5714 15.4575C18.0978 15.4575 17.3302 15.6365 16.6798 16.3554C16.0293 17.0741 14.1976 18.8106 14.1976 22.3414C14.1976 25.8722 16.7384 29.286 17.0935 29.7652C17.4486 30.2444 22.0945 37.4919 29.2076 40.6013C30.8992 41.3407 32.2205 41.7828 33.2506 42.1133C34.9491 42.66 36.4949 42.5829 37.7169 42.3983C39.0792 42.1918 41.9124 40.6618 42.503 38.9859C43.0936 37.31 43.0936 35.8724 42.9167 35.5735C42.7399 35.2747 42.2663 35.0943 41.5573 34.735L41.5585 34.7322Z" fill="#25D366"/>
</g>
<defs>
<clipPath id="clip0_2444_3843">
<rect width="57" height="58" fill="white"/>
</clipPath>
</defs>
</svg>
